# xmcd
# 
# Track frame offsets:
#     150
#     34615
#     50390
#     61792
#     80240
#     94375
#     113835
#     131230
#     170200
#     187585
#     200635
# 
# Disc length: 3024
# 
# Revision: 14
# Processed by: cddbd v1.5.2PL0 Copyright (c) Steve Scherf et al.
# Submitted via: fre:ac v1.0.17
# 
DISCID=9a0bce0b
DTITLE=Axelle Red - Toujours moi
DYEAR=1999
DGENRE=Pop
TTITLE0=Faire des mamours
TTITLE1=Mon futur proche
TTITLE2=Ce matin
TTITLE3=Parce que c'est toi
TTITLE4=A 82 ans
TTITLE5=La réponse
TTITLE6=Bimbo à moi
TTITLE7=Stay or not
TTITLE8=J'ai jamais dit (Je serais ton amie)
TTITLE9=Quitter tôt
TTITLE10=Toujours moi
EXTD=ID3G: 102
EXTT0=
EXTT1=
EXTT2=
EXTT3=
EXTT4=
EXTT5=
EXTT6=
EXTT7=
EXTT8=
EXTT9=
EXTT10=
PLAYORDER=
